<svg width="47" height="24" viewBox="0 0 47 24" fill="none" xmlns="http://www.w3.org/2000/svg">
<path fill-rule="evenodd" clip-rule="evenodd" d="M30.0443 0.913693C24.768 1.40449 20.3674 1.83318 20.265 1.86634C20.1267 1.91105 20.0791 2.53284 20.0791 4.29828V6.67021L21.65 7.52907L23.221 8.38779H28.3333H33.4454L33.4926 7.97711C33.5396 7.56643 33.5399 7.56628 36.663 6.958C38.3809 6.62355 39.9057 6.3032 40.0513 6.24633C40.2942 6.1515 40.315 5.88652 40.3009 3.064C40.2854 0.000513221 40.2838 -0.0146414 39.9615 0.0032141C39.7834 0.0132672 35.3206 0.422893 30.0443 0.913693ZM0 3.79398V4.75202L2.86313 4.85195C4.43793 4.90687 7.39953 5.01325 9.44462 5.08827C11.4897 5.1633 14.5519 5.27013 16.2492 5.32565L19.3354 5.42663V4.13128V2.83608H9.66772H0V3.79398ZM40.1582 7.945L33.5396 9.4264L23.8718 9.43196L14.2041 9.43736L7.43671 11.249C3.35128 12.3426 0.56757 13.1606 0.412589 13.3129C0.0227563 13.6964 -0.0774905 14.44 0.219978 14.7401C0.448136 14.9703 1.90112 14.9898 18.8012 14.9898C28.8848 14.9898 39.3546 15.0345 42.0675 15.0891L47 15.1883V10.8128C47 8.40624 46.9499 6.44319 46.8885 6.45039C46.827 6.45759 43.7985 7.13025 40.1582 7.945ZM10.1727 16.0607C8.72802 16.3884 7.69015 18.0321 8.01291 19.4811C8.42951 21.3518 10.3117 22.3769 12.013 21.6597C14.636 20.5541 14.3375 16.6897 11.5796 16.0481C11.2233 15.9653 10.8985 15.903 10.8576 15.9099C10.8167 15.9166 10.5085 15.9846 10.1727 16.0607ZM16.8908 16.059C15.4057 16.4092 14.3853 18.0481 14.7201 19.5457C15.329 22.2691 18.9742 22.7206 20.2344 20.2285C21.3551 18.0123 19.3279 15.4844 16.8908 16.059ZM23.3342 16.0936C22.0405 16.5683 21.266 17.6228 21.2723 18.9009C21.287 21.902 25.1335 23.0144 26.696 20.4695C27.4697 19.2093 27.2432 17.6432 26.1537 16.7185C25.3329 16.0215 24.2092 15.7726 23.3342 16.0936ZM30.1245 16.1104C28.908 16.4393 27.9622 17.7226 27.9643 19.0411C27.9651 19.5185 28.575 20.8373 28.9504 21.1735C29.4079 21.5833 30.2799 21.8922 30.9691 21.8886C32.7525 21.8795 34.0725 20.36 33.8611 18.5599C33.7482 17.5988 33.2934 16.8751 32.5227 16.4307C31.7043 15.9588 31.0221 15.8677 30.1245 16.1104ZM1.87851 16.3777C1.6981 17.0573 1.79388 18.3714 2.0683 18.9812C2.22075 19.3197 2.58649 19.8397 2.88113 20.1371C3.75807 21.0217 7.2209 22.9781 9.14715 23.677L10.0396 24.001L24.5411 23.9593L39.0427 23.9176L40.272 23.3705C43.6035 21.8877 46.0188 20.2 46.5742 18.9668C46.8694 18.3109 46.9357 17.0342 46.7062 16.425C46.5794 16.0883 46.4748 16.0401 45.8723 16.0401C45.3046 16.0401 45.1993 16.082 45.2738 16.278C45.5304 16.9524 45.5403 18.1118 45.2939 18.6355C44.9307 19.4076 44.3503 19.798 41.4201 21.241L38.8201 22.5215L24.281 22.5082L9.74209 22.495L7.13924 21.207C4.30437 19.8042 3.68504 19.4015 3.34637 18.7407C3.09412 18.2485 3.05604 17.2507 3.26174 16.5267L3.40006 16.0401H2.68421C2.06741 16.0401 1.95585 16.0869 1.87851 16.3777ZM4.32876 16.5705C3.33358 17.7139 4.03322 19.3411 5.51997 19.3411C6.44361 19.3411 7.13061 18.6914 7.13597 17.8129C7.14296 16.6366 6.55129 16.0401 5.37719 16.0401C4.89157 16.0401 4.71071 16.1317 4.32876 16.5705ZM36.7182 16.2682C35.8646 16.5416 35.0345 17.4273 34.7955 18.3198C34.44 19.6468 35.1091 21.1283 36.3341 21.7266C37.8517 22.4677 39.6261 21.8405 40.3233 20.3164C41.3942 17.9759 39.1732 15.482 36.7182 16.2682ZM42.0482 16.3426C41.5147 16.7661 41.2791 17.55 41.4909 18.1976C41.7284 18.9239 42.1312 19.2246 42.9758 19.3065C43.6438 19.3712 43.7567 19.3351 44.1596 18.9287C44.9421 18.1393 44.9488 17.2488 44.1779 16.4711C43.6404 15.929 42.6452 15.8688 42.0482 16.3426Z" fill="#27FF32"/>
</svg>
