<svg width="20" height="21" viewBox="0 0 20 21" fill="none" xmlns="http://www.w3.org/2000/svg">
<g clip-path="url(#clip0_86_27458)">
<path d="M17.6748 6.12509C17.687 6.29558 17.687 6.46612 17.687 6.63662C17.687 11.837 13.718 17.8291 6.46368 17.8291C4.22877 17.8291 2.15265 17.1836 0.40625 16.0632C0.723788 16.0997 1.02907 16.1119 1.35883 16.1119C3.20289 16.1119 4.90047 15.4908 6.25606 14.4312C4.52188 14.3947 3.06858 13.262 2.56785 11.7031C2.81213 11.7396 3.05636 11.764 3.31285 11.764C3.667 11.764 4.02119 11.7152 4.35091 11.63C2.54346 11.2646 1.18782 9.68137 1.18782 7.76926V7.72056C1.71294 8.01286 2.32362 8.19554 2.97084 8.21987C1.90834 7.51348 1.21226 6.30777 1.21226 4.94371C1.21226 4.21298 1.40762 3.54313 1.74959 2.95853C3.6914 5.34562 6.61022 6.90451 9.88315 7.07505C9.8221 6.78275 9.78545 6.4783 9.78545 6.17382C9.78545 4.00593 11.5441 2.23999 13.7301 2.23999C14.8659 2.23999 15.8917 2.71497 16.6123 3.48225C17.5038 3.31175 18.3586 2.9829 19.1159 2.53229C18.8227 3.44574 18.1999 4.21302 17.3817 4.70014C18.1755 4.61493 18.9449 4.39566 19.6532 4.09122C19.1159 4.87064 18.4442 5.56482 17.6748 6.12509Z" fill="white"/>
</g>
<defs>
<clipPath id="clip0_86_27458">
<rect width="19.9437" height="19.9437" fill="white" transform="translate(0.0546875 0.0622559)"/>
</clipPath>
</defs>
</svg>
