<svg width="23" height="20" viewBox="0 0 23 20" fill="none" xmlns="http://www.w3.org/2000/svg">
<path fill-rule="evenodd" clip-rule="evenodd" d="M15.7516 0.504732C15.6576 0.544342 2.73938 3.97904 1.72959 4.23291C1.13966 4.38123 0.308156 5.19076 0.131589 5.78868C-0.0438631 6.38294 -0.0438631 17.2264 0.131589 17.8206C0.295905 18.3771 1.13459 19.2163 1.69072 19.3808C2.29108 19.5583 20.4041 19.5583 21.0045 19.3808C21.5606 19.2163 22.3993 18.3771 22.5636 17.8206C22.6338 17.5829 22.6867 16.8115 22.6867 16.0259V14.648L18.7456 14.6194C14.9463 14.5916 14.7944 14.5831 14.525 14.3817C13.8526 13.8792 13.828 13.7882 13.828 11.8047C13.828 9.82108 13.8526 9.73011 14.525 9.22763C14.7944 9.02623 14.9463 9.01772 18.7456 8.98996L22.6867 8.96129V7.58342C22.6867 5.8681 22.5905 5.52194 21.9308 4.86172C21.3295 4.26006 20.9 4.10537 19.8308 4.10537H19.0739L18.8028 3.06698C18.6535 2.49581 18.406 1.82465 18.2526 1.57534C17.867 0.949062 17.2002 0.553257 16.4444 0.502098C16.119 0.480114 15.8073 0.481228 15.7516 0.504732ZM16.7113 2.25977C16.8509 2.37293 17.0211 2.74178 17.1669 3.2475L17.3996 4.05471L15.2917 4.08207C14.1323 4.09706 12.1905 4.09706 10.9767 4.08207L8.76976 4.05471L12.4126 3.07447C14.4161 2.53532 16.1528 2.09089 16.2719 2.08673C16.3911 2.08258 16.5888 2.16049 16.7113 2.25977ZM15.3973 11.8047V13.0203H19.042H22.6867V11.8047V10.589H19.042H15.3973V11.8047Z" fill="white"/>
</svg>
