<svg width="520" height="350" viewBox="0 0 520 350" fill="none" xmlns="http://www.w3.org/2000/svg">
<path d="M315.513 1.21429C315.002 1.85371 314.149 3.08992 313.723 3.94247C313.254 4.79503 312.444 5.69022 311.89 5.94598C311.336 6.20175 308.906 6.41489 306.476 6.41489C302.725 6.41489 302 6.287 301.361 5.60495C300.977 5.17867 299.911 4.49662 299.016 4.07034C297.396 3.34567 297.311 3.34567 296.288 4.11298C294.796 5.26393 292.963 8.67417 292.665 10.9761C292.366 12.8091 292.196 13.0222 290.235 14.0879C284.608 17.0719 282.604 17.3703 280.217 15.452C278.683 14.1732 278.342 14.0879 275.23 14.0879C273.354 14.0879 271.649 13.8748 271.436 13.6616C271.18 13.4059 269.901 13.1927 268.58 13.1075C266.278 13.0222 266.107 13.0648 264.274 14.8978L262.314 16.8161L261.12 15.6651C259.713 14.301 257.88 14.1732 255.195 15.2815C252.722 16.3046 251.614 17.3276 249.738 20.269C248.204 22.6987 244.41 27.8567 241.682 31.3096C240.403 32.8868 240.36 33.0573 240.36 37.4906C240.36 41.0714 240.573 42.6486 241.383 45.2063C243.259 51.0889 243.557 52.112 243.301 52.4956C243.174 52.7088 242.364 52.8793 241.468 52.8793C240.019 52.8793 239.806 52.7088 239.124 51.1742C238.357 49.4265 235.33 46.4851 233.113 45.2915C232.261 44.8653 230.044 44.5242 226.421 44.3111C221.86 44.0553 220.794 43.8848 219.856 43.1175C218.407 42.0092 217.81 42.0092 216.19 43.1175C215.252 43.7995 214.57 43.9701 213.462 43.7996C211.672 43.5012 210.904 44.1406 209.455 47.0393C208.645 48.6591 208.347 48.9149 207.707 48.6165C206.855 48.1476 206.258 46.5277 205.618 43.0749C204.979 39.6647 203.999 37.6611 202.592 37.107C201.569 36.6807 201.1 36.7659 199.139 37.6611C197.903 38.2579 196.283 38.8547 195.558 38.9826C194.152 39.281 192.276 41.0714 190.912 43.3733C189.889 45.0784 189.505 45.121 189.164 43.5864C188.994 42.947 188.525 41.7108 188.098 40.8582C187.075 38.8547 185.498 38.5137 181.406 39.3662L178.422 39.963L177.484 38.0022C176.035 34.8477 175.949 34.7624 174.841 34.6346C174.031 34.5493 173.306 35.1034 171.346 37.3201C169.982 38.8547 168.703 40.0909 168.532 40.0909C168.404 40.0909 167.978 39.5794 167.68 38.8973C166.742 37.0217 165.889 36.2544 164.909 36.2544C163.587 36.2544 163.161 36.9365 162.564 39.963C162.01 42.7765 161.754 43.0749 160.859 42.0092C160.433 41.455 160.433 41.1992 160.944 40.6024C162.735 38.5989 162.053 36.2544 159.666 36.2544C158.898 36.2544 157.534 36.6807 156.639 37.1922L155.019 38.13L152.547 37.107C151.183 36.5528 149.392 36.1265 148.625 36.1265C147.176 36.1692 147.133 36.0839 146.579 33.441C146.153 31.1817 145.343 30.798 140.568 30.6275C136.604 30.4996 136.135 30.4144 134.43 29.2208C132.512 27.8994 130.551 27.6009 127.695 28.2404C126.501 28.5388 126.245 28.4535 125.947 27.601C125.435 26.2369 124.199 25.7253 119.084 24.7449C116.611 24.2333 114.224 23.6366 113.713 23.4234C113.201 23.125 111.496 23.0824 109.45 23.2103C97.3862 24.1481 96.0221 24.0628 91.8446 21.8462L89.9263 20.8658L87.1555 22.0167C85.6209 22.6561 84.0863 23.3808 83.7453 23.6366C82.978 24.2334 75.9444 24.1055 74.836 23.5087C74.1966 23.1676 73.6425 23.2103 72.7899 23.6366C72.1078 23.9776 69.6781 24.9154 67.4188 25.8106C62.6018 27.6436 62.1756 27.9846 60.3426 31.2243C58.7653 34.0804 58.0406 35.0608 56.0798 36.9791C54.9288 38.13 54.332 38.3858 52.84 38.3858C51.3907 38.3858 50.7939 38.13 49.8135 37.107C48.151 35.3592 45.7638 35.3166 44.0587 37.0217L42.9077 38.2153L42.9504 45.8883C43.0356 54.3286 42.8651 53.6892 46.318 58.6341C47.4263 60.126 48.0231 61.5754 48.1936 62.769C48.5773 66.1366 50.7939 69.5894 54.332 72.1897L55.3551 72.957L53.7352 72.7013C51.9022 72.4029 50.8792 72.957 50.8792 74.2785C50.8792 74.7048 51.817 76.8788 52.9679 79.0528C55.0141 82.8893 55.2698 84.1255 54.2894 85.4896C54.1189 85.7028 53.7352 87.1521 53.4368 88.6867C52.84 91.9691 52.3711 92.6937 51.3054 92.097C49.4724 91.1165 47.8526 91.5854 45.8917 93.6742C44.9113 94.7825 44.0587 95.8482 44.0587 96.0187C44.0587 96.3597 41.2453 99.2584 39.327 100.836C37.835 102.115 36.812 103.393 30.9293 111.28C28.0306 115.159 25.4303 118.612 25.1745 118.953C24.8761 119.294 24.2794 120.189 23.8531 120.871C23.3842 121.595 22.7874 122.32 22.4464 122.491C22.148 122.661 21.8922 123.002 21.8922 123.258C21.8922 123.471 20.4428 125.602 18.6951 127.904C16.9474 130.249 15.3275 132.593 15.0717 133.19C14.1765 135.577 14.1765 139.201 15.0717 144.274C15.9669 149.431 16.9474 151.947 18.8656 153.652C19.9313 154.632 20.1018 156.678 19.0788 156.295C18.6951 156.167 18.2688 156.039 18.0983 156.039C17.9278 156.039 16.7342 155.101 15.4554 153.907C11.6189 150.369 9.99901 151.137 8.4644 157.318C7.52659 161.154 5.77885 165.076 3.34906 168.827C2.36861 170.362 1.34554 172.152 1.08978 172.877C0.535614 174.326 -0.231688 181.147 0.0667072 181.914C0.151963 182.212 0.961893 182.852 1.85708 183.363C3.56219 184.344 3.86059 184.77 5.01154 188.393C5.99198 191.335 6.29038 191.633 8.89068 192.102C10.8089 192.443 11.0221 192.614 11.15 193.679C11.3205 195.001 12.4714 195.896 14.6028 196.28C15.4128 196.407 16.8195 196.748 17.7573 197.004C19.2066 197.388 19.3771 197.558 19.164 198.454C18.9509 199.221 19.1214 199.647 19.8461 200.116C21.1249 200.883 24.5351 201.352 26.6239 201.011C28.2864 200.713 28.7979 200.116 29.7357 197.26C29.8636 196.876 30.1194 196.535 30.2899 196.578C30.4604 196.578 31.654 197.814 32.8902 199.306C34.1264 200.755 35.7889 202.29 36.6414 202.716C38.0908 203.398 38.2613 203.356 40.7763 202.461L43.4619 201.523L44.6555 202.674C46.1475 204.038 47.3837 204.379 49.5151 204.038C54.9288 203.228 55.8666 203.228 57.5717 204.208C58.9785 204.976 59.7458 205.104 62.2182 204.933C63.838 204.848 66.5236 204.379 68.1861 203.91C69.8912 203.441 71.4258 203.143 71.6389 203.313C71.8947 203.441 72.1931 204.08 72.321 204.677C72.8325 206.681 79.0988 212.265 81.5712 212.862C85.152 213.757 89.5 210.475 90.7362 205.999C90.992 205.146 91.2478 205.061 94.1039 205.061C95.8516 205.061 100.072 204.762 103.567 204.379C109.407 203.782 110.217 203.612 113.542 201.992C115.546 201.054 119.382 198.624 122.11 196.578C126.97 192.997 128.462 191.335 129.059 188.777C129.187 188.138 129.485 187.157 129.741 186.56L130.124 185.495L132.639 186.603C135.069 187.626 135.197 187.669 136.305 186.944C136.945 186.518 137.414 185.793 137.414 185.282C137.414 184.472 137.627 184.386 139.375 184.514C140.909 184.642 141.506 184.514 142.273 183.79L143.211 182.894L144.447 184.173C146.195 185.964 147.303 185.836 149.222 183.491L150.842 181.53L153.442 181.829C155.488 182.042 156.127 181.957 156.554 181.445C157.278 180.592 158.046 180.592 158.728 181.402C159.069 181.786 160.007 182.042 161.243 182.042C162.905 182.042 163.715 182.383 166.188 184.088C171.601 187.754 173.179 189.075 173.69 190.354C174.372 191.931 174.798 192.273 176.29 192.273C177.186 192.273 177.399 192.443 177.186 192.912C176.845 193.85 178.081 195.043 180.042 195.683C181.662 196.237 181.875 196.194 184.475 194.83C187.118 193.423 187.246 193.423 188.823 194.02C190.059 194.489 190.613 195.001 190.912 195.981C191.466 197.686 192.319 198.581 195.175 200.585C197.178 201.949 197.775 202.162 199.182 201.949L200.801 201.736L201.313 203.782C201.611 204.933 202.507 206.766 203.317 207.917C204.126 209.025 204.766 210.048 204.766 210.219C204.766 210.347 203.913 211.029 202.848 211.796C201.356 212.862 200.929 213.416 200.929 214.354C200.929 214.993 201.142 215.76 201.356 215.974C201.825 216.443 201.313 219.938 200.418 222.24C200.034 223.22 200.119 223.561 200.759 224.286C201.441 225.053 201.867 225.139 203.572 224.925L205.576 224.627L205.32 226.076C204.851 229.018 206.641 230.254 209.327 228.89C211.757 227.654 212.14 227.782 211.288 229.657C210.947 230.552 210.478 231.661 210.307 232.13C210.137 232.599 209.753 233.536 209.498 234.176C208.901 235.753 208.901 238.012 209.54 238.652C209.839 238.95 210.691 239.163 211.458 239.163C212.396 239.163 212.865 239.376 212.865 239.76C212.865 240.101 213.334 241.295 213.931 242.403C214.528 243.511 214.997 244.747 214.997 245.174C214.997 246.538 216.531 247.689 218.364 247.689C219.728 247.689 220.24 247.945 221.348 249.181C222.073 249.991 222.84 250.673 223.096 250.673C223.778 250.673 223.607 251.781 222.584 253.912C221.86 255.49 221.774 256.044 222.158 256.683C222.797 257.664 222.84 259.497 222.243 259.838C221.092 260.562 222.712 265.166 224.076 265.166C224.673 265.166 226.08 266.488 226.08 267.042C226.08 267.212 225.27 267.298 224.289 267.212C222.67 267.084 222.414 266.914 221.391 265.166C220.24 263.205 219.472 262.779 217.767 263.205C217.085 263.376 216.616 263.973 216.275 265.038C215.977 265.934 215.636 266.786 215.465 266.957C215.295 267.127 214.229 266.488 213.078 265.55C211.927 264.612 210.649 263.632 210.222 263.418C209.199 262.864 206.556 263.376 205.107 264.399L203.913 265.209V263.717C203.913 261.117 201.782 259.71 199.864 261.074C199.395 261.372 198.457 261.756 197.732 261.927C194.961 262.609 193.981 264.484 193.469 270.068C193.128 273.734 193.597 275.141 195.558 276.292L197.05 277.187L194.748 279.447C192.446 281.663 191.935 282.857 192.873 283.795C193.597 284.519 193.043 285.073 190.741 285.841C187.97 286.736 187.544 287.29 187.8 289.89C188.056 292.363 187.928 292.491 184.304 293.258C181.065 293.94 180.468 294.622 180.468 297.521C180.468 301.443 180.255 301.826 178.081 301.826C173.946 301.826 173.179 303.276 175.139 307.538C175.736 308.817 176.205 310.522 176.205 311.29C176.205 312.1 176.461 313.037 176.759 313.421C178.081 315.083 186.18 318.877 188.482 318.877C189.889 318.877 191.295 317.556 192.02 315.552C192.446 314.316 192.66 314.188 194.152 314.188C195.089 314.188 198.755 313.208 202.293 312.057C205.832 310.863 209.327 309.926 210.094 309.926C211.544 309.926 212.95 311.162 214.4 313.634C214.954 314.657 215.465 315.041 216.318 315.041C217.554 315.041 217.81 314.615 219.004 310.139C220.112 305.918 220.069 304.938 218.62 304.384C217.469 303.958 216.702 302.466 216.702 300.633V299.524L217.384 300.462C218.876 302.594 221.988 300.59 221.732 297.649C221.647 296.327 221.774 296.114 223.352 295.262C224.332 294.75 226.762 293.13 228.808 291.681C230.812 290.231 232.687 289.038 232.858 289.038C233.625 289.038 236.353 285.414 237.632 282.814C239.465 278.892 239.337 277.912 236.652 275.908C235.415 274.971 234.009 273.777 233.54 273.223C232.772 272.328 232.815 272.328 234.179 273.351C234.989 273.99 236.481 274.8 237.504 275.184C238.485 275.61 239.721 276.463 240.19 277.145C241.554 279.063 242.96 278.807 244.026 276.463C244.495 275.397 245.859 272.967 247.053 271.049L249.227 267.553L248.971 264.228C248.758 260.946 248.758 260.903 249.781 260.903C250.335 260.903 251.742 260.52 252.935 260.051C254.641 259.369 255.45 259.284 256.9 259.582C259.159 260.051 265.809 259.582 266.662 258.9C267.173 258.431 267.472 258.559 268.281 259.411C269.518 260.733 270.796 260.776 272.331 259.582C273.226 258.857 274.036 258.644 276.082 258.687C277.915 258.729 278.938 258.516 279.45 258.047C280.473 257.152 281.837 257.578 284.437 259.625C286.782 261.5 286.867 261.671 286.057 262.736C285.588 263.418 285.375 263.418 283.841 262.907C282.903 262.566 280.857 262.14 279.365 261.969C277.83 261.841 275.528 261.415 274.207 261.074C271.18 260.307 271.393 260.307 270.839 261.372C270.455 262.054 270.498 262.395 271.01 262.95C271.905 263.973 275.741 265.891 278.725 266.829L281.283 267.639L278.768 268.363C277.404 268.747 275.912 269.472 275.486 269.898C273.61 271.774 275.017 273.01 279.791 273.734C281.794 274.033 283.585 274.416 283.798 274.63C284.054 274.8 284.523 274.971 284.906 274.971C285.29 274.971 285.972 275.354 286.441 275.866C287.507 277.059 291.343 278.978 295.308 280.299C299.229 281.621 302.981 281.706 306.348 280.555C307.627 280.086 309.716 279.617 310.995 279.447C313.169 279.191 313.339 279.233 316.451 281.28C321.779 284.775 324.721 285.159 327.023 282.601C328.046 281.45 328.174 281.407 328.429 282.09C328.984 283.454 328.813 285.542 328.088 286.906C326.724 289.294 318.113 294.494 312.487 296.327C308.778 297.521 304.217 300.078 301.915 302.252C300.466 303.617 299.528 305.577 299.016 308.007C298.59 310.309 298.632 310.65 299.315 311.588C300.423 313.123 302 313.378 306.902 312.824C312.146 312.27 312.657 312.483 314.703 316.064C315.428 317.385 316.494 318.749 317.09 319.133C318.454 320.028 322.163 320.114 324.039 319.346C325.19 318.877 325.531 318.877 326.383 319.432C327.321 320.028 327.364 320.284 327.065 322.373C326.895 323.609 326.724 326.977 326.724 329.875C326.682 335.46 326.596 335.758 324.294 338.785C322.675 340.916 322.419 342.792 323.527 344.369C323.911 344.923 325.275 346.415 326.596 347.694C329.282 350.294 329.154 350.252 334.568 349.058C335.761 348.802 338.319 348.546 340.323 348.461C342.326 348.419 344.372 348.333 344.884 348.333C346.333 348.291 348.209 346.287 349.956 342.962C352.727 337.634 355.285 335.63 360.571 334.437C364.706 333.541 370.247 331.879 372.293 330.941C379.583 327.616 382.95 325.655 382.95 324.632C382.95 324.462 383.249 323.694 383.59 322.927C384.229 321.648 384.357 321.563 385.849 321.861C386.702 322.032 388.279 322.501 389.345 322.884C391.519 323.694 396.421 324.334 402.986 324.717L407.504 324.931L409.081 323.183C409.934 322.202 410.701 321.009 410.701 320.455C410.786 319.346 410.786 319.687 410.445 316.49C410.147 314.103 410.232 313.805 411.128 312.952C411.895 312.227 412.449 312.057 413.515 312.27C414.41 312.441 415.049 312.313 415.518 311.844C416.371 310.949 416.371 310.991 415.348 308.902C414.495 307.155 411.767 305.109 409.593 304.554C408.399 304.256 404.52 305.322 401.323 306.814C399.533 307.666 398.851 307.794 398.339 307.453C397.955 307.155 396.847 306.43 395.824 305.833C394.034 304.725 393.948 304.725 392.201 305.407C391.22 305.791 389.728 306.728 388.918 307.496C387.256 309.03 386.062 309.67 383.59 310.352C381.885 310.863 381.757 310.821 375.15 309.158C373.444 308.732 371.441 306.643 371.441 305.322C371.441 304.682 371.739 303.403 372.08 302.466C373.615 298.118 372.635 295.603 368.585 293.642C367.008 292.874 365.047 291.553 364.194 290.743C361.978 288.654 359.846 286.906 359.42 286.906C359.249 286.906 359.079 285.5 359.079 283.795C359.079 282.09 358.866 280.47 358.61 280.214C358.312 279.915 359.036 279.702 361.168 279.574C363.853 279.361 364.407 279.148 366.837 277.4C369.651 275.397 372.293 274.118 373.572 274.118C374.766 274.118 376.471 272.2 376.769 270.537C377.025 269.216 377.196 269.088 377.835 269.429C378.261 269.685 379.327 269.855 380.18 269.855C381.416 269.855 381.842 269.642 382.439 268.576C382.823 267.894 383.462 267.298 383.803 267.298C384.144 267.298 385.807 266.317 387.426 265.166C393.522 260.861 396.762 259.625 402.133 259.625C405.373 259.625 405.927 259.497 406.652 258.729C407.078 258.218 408.016 257.536 408.74 257.152C410.659 256.129 417.607 253.23 418.204 253.23C418.502 253.23 419.44 253.699 420.293 254.296C421.998 255.447 422.808 255.575 424.47 254.936C425.578 254.509 426.175 253.529 427.497 249.735C428.221 247.774 428.264 247.774 430.438 247.561C436.619 246.921 437.94 246.495 439.603 244.62C442.161 241.678 443.013 241.124 445.741 240.57C449.152 239.931 454.778 239.888 457.464 240.485C461.301 241.38 463.645 239.931 464.37 236.222C464.583 235.028 465.094 233.451 465.478 232.726C466.032 231.618 466.075 231.192 465.649 230.382C464.839 228.933 465.691 218.702 466.672 217.892C466.97 217.636 469.272 217.167 471.787 216.826C478.394 215.974 480.099 214.695 481.975 209.238C483.552 204.72 483.339 204.848 486.835 205.7C489.137 206.254 491.268 206.382 496.81 206.254C503.545 206.127 503.886 206.084 505.804 204.976C508.106 203.569 509.555 201.054 509.555 198.283C509.555 197.004 509.854 196.066 510.621 195.086C511.772 193.594 512.966 190.184 512.966 188.393C512.966 187.626 512.625 187.157 511.857 186.774C510.919 186.347 510.792 186.091 511.005 185.111C511.815 181.53 511.815 181.104 510.621 178.077C508.404 172.195 508.191 171.811 507.126 171.555C506.23 171.3 506.145 171.129 506.401 169.722C507.083 166.056 507.083 166.056 509.3 165.928C512.625 165.715 515.523 163.413 515.523 160.984C515.523 158.938 514.585 158.298 512.667 158.98C511.474 159.449 510.962 159.449 510.195 159.023C509.044 158.383 506.401 154.888 506.87 154.632C507.083 154.504 508.276 154.121 509.555 153.78C512.198 153.012 513.136 152.202 515.097 148.835C515.822 147.556 516.887 146.149 517.441 145.723C519.871 143.847 519.743 138.519 517.228 135.577L515.992 134.128L517.484 132.508C518.294 131.613 518.933 130.505 518.933 129.993C518.933 128.672 516.461 126.626 514.841 126.626C513.562 126.626 510.877 128.245 509.598 129.737C509.3 130.121 508.873 130.462 508.66 130.462C508.234 130.462 504.44 125.56 504.44 125.006C504.44 124.793 503.801 123.897 503.033 123.002C501.754 121.595 501.456 121.425 499.069 121.34C496.17 121.169 495.19 120.743 492.632 118.356L490.842 116.693L487.389 117.461L483.936 118.228L482.401 116.693C481.591 115.841 480.654 115.116 480.313 115.116C480.014 115.116 479.119 114.349 478.394 113.411C477.073 111.748 476.945 111.706 474.473 111.706C471.275 111.706 469.442 110.811 467.482 108.338C465.222 105.482 464.455 104.885 462.878 104.885C460.789 104.885 459.681 106.463 459.681 109.532C459.638 110.853 459.382 112.388 459.084 112.942L458.53 113.922L457.72 112.899C457.294 112.345 455.418 110.768 453.628 109.447C451.795 108.082 449.834 106.377 449.194 105.567C447.915 103.99 446.466 100.495 446.466 99.0027C446.466 98.3633 445.869 97.6386 444.59 96.7008C443.184 95.763 442.416 94.7399 441.692 93.0774C440.456 90.264 439.646 89.9656 436.619 91.3723C435.34 91.9264 433.422 92.8216 432.314 93.3332C431.205 93.8021 429.287 94.4415 428.051 94.6973C426.815 94.953 424.172 95.7203 422.168 96.4024C417.82 97.8944 415.305 97.9796 413.046 96.7434C411.213 95.763 409.039 95.8909 408.101 96.9992C407.803 97.3402 407.461 97.6386 407.291 97.6386C407.12 97.6386 406.481 96.4024 405.799 94.8678C405.117 93.2479 403.966 91.5428 403.071 90.7755C401.664 89.5393 401.451 89.454 399.405 89.7524C398.211 89.923 396.08 90.1361 394.716 90.1787C393.011 90.264 391.817 90.605 391.007 91.2018C390.325 91.7133 389.643 92.0969 389.473 92.0543C389.132 92.0543 386.872 89.2835 384.528 86.0438C382.865 83.7845 382.609 81.8236 383.76 80.3317C385.082 78.6692 384.869 76.7509 382.95 72.6586C382.013 70.6551 381.245 68.7795 381.245 68.4811C381.245 68.1827 381.629 67.5859 382.098 67.1596C382.567 66.7334 382.95 66.0513 382.95 65.625C382.95 64.8577 380.691 62.6837 379.881 62.6837C379.625 62.6837 378.602 62.2574 377.622 61.7885C375.661 60.8081 375.022 59.8276 374.595 57.0995C374.212 54.7123 372.976 54.1581 370.162 55.1386C367.093 56.2469 364.578 56.0764 361.722 54.5844C358.141 52.7514 354.646 51.9415 352.557 52.4956C350.212 53.1351 349.701 52.5809 350.255 50.1085C350.596 48.6165 350.553 47.8492 349.999 46.4851C349.615 45.5047 349.53 44.6947 349.743 44.5242C350.383 44.1406 350.17 42.0944 349.36 40.8582C348.933 40.2188 347.868 39.0679 346.973 38.3006L345.353 36.9365L349.061 35.1461C353.196 33.0999 353.921 32.3753 353.964 30.457C353.964 29.3487 353.324 28.4535 350.553 25.5548C347.356 22.1446 345.353 18.9901 344.756 16.3472C344.628 15.6652 344.372 14.3863 344.202 13.4059C343.861 11.5729 340.706 6.50013 338.66 4.53925C337.296 3.26041 332.436 1.29953 330.603 1.29953C329.964 1.29953 328.984 1.68319 328.387 2.1521C326.937 3.26042 326.682 3.21778 323.101 1.51266C319.137 -0.405591 316.963 -0.490821 315.513 1.21429ZM346.205 278.637C347.058 279.489 348.379 280.47 349.061 280.768C350.298 281.322 350.298 281.322 347.91 281.365C345.694 281.365 345.267 281.237 343.775 279.873C342.88 279.063 341.9 278.381 341.644 278.381C341.005 278.381 341.047 277.656 341.729 277.4C343.264 276.761 344.671 277.145 346.205 278.637ZM353.964 278.338C353.964 278.551 353.665 278.935 353.324 279.233C352.77 279.66 352.685 279.617 352.685 278.85C352.685 278.338 352.94 277.955 353.324 277.955C353.665 277.955 353.964 278.125 353.964 278.338ZM351.832 281.152C351.534 281.535 351.193 281.706 351.107 281.621C350.809 281.322 351.406 280.512 351.917 280.512C352.173 280.512 352.173 280.768 351.832 281.152Z" fill="#021318" stroke="#fff" stroke-width="3"/>
</svg>
